<?xml version="1.0" encoding="UTF-8" standalone="no"?><svg xmlns="http://www.w3.org/2000/svg" xmlns:xlink= "http://www.w3.org/1999/xlink" width="600" height="390" aria-label="A chart." style="overflow: hidden;"><defs id="_ABSTRACT_RENDERER_ID_31"><filter id="_ABSTRACT_RENDERER_ID_32"><feGaussianBlur in="SourceAlpha" stdDeviation="2"></feGaussianBlur><feOffset dx="1" dy="1"></feOffset><feComponentTransfer><feFuncA type="linear" slope="0.1"></feFuncA></feComponentTransfer><feMerge><feMergeNode></feMergeNode><feMergeNode in="SourceGraphic"></feMergeNode></feMerge></filter></defs><rect x="0" y="0" width="600" height="390" stroke="none" stroke-width="0" fill="#ffffff"></rect><g><rect x="365" y="75" width="121" height="85" stroke="none" stroke-width="0" fill-opacity="0" fill="#ffffff"></rect><g column-id="TODO ESTA BIEN"><rect x="365" y="75" width="121" height="30" stroke="none" stroke-width="0" fill-opacity="0" fill="#ffffff"></rect><g><text text-anchor="start" x="383" y="86.05" font-family="Arial" font-size="13" stroke="none" stroke-width="0" fill="#222222">TODO ESTA</text><text text-anchor="start" x="383" y="103.05" font-family="Arial" font-size="13" stroke="none" stroke-width="0" fill="#222222">BIEN</text></g><circle cx="371.5" cy="81.5" r="6.5" stroke="none" stroke-width="0" fill="#3366cc"></circle></g><g column-id="TODO ESTA BIEN PERO EN ROJO"><rect x="365" y="113" width="121" height="47" stroke="none" stroke-width="0" fill-opacity="0" fill="#ffffff"></rect><g><text text-anchor="start" x="383" y="124.05" font-family="Arial" font-size="13" stroke="none" stroke-width="0" fill="#222222">TODO ESTA</text><text text-anchor="start" x="383" y="141.05" font-family="Arial" font-size="13" stroke="none" stroke-width="0" fill="#222222">BIEN PERO EN</text><text text-anchor="start" x="383" y="158.05" font-family="Arial" font-size="13" stroke="none" stroke-width="0" fill="#222222">ROJO</text></g><circle cx="371.5" cy="119.5" r="6.5" stroke="none" stroke-width="0" fill="#dc3912"></circle></g></g><g><path d="M121.57955714235251,212.78234988699523L121.57955714235251,235.58234988699525A114,91.2,0,0,1,116,207.4L116,184.6A114,91.2,0,0,0,121.57955714235251,212.78234988699523" stroke="#a52b0e" stroke-width="1" fill="#a52b0e"></path><path d="M230,184.6L230,207.4L121.57955714235251,235.58234988699525L121.57955714235251,212.78234988699523" stroke="#a52b0e" stroke-width="1" fill="#a52b0e"></path><path d="M230,184.6L121.57955714235251,212.78234988699523A114,91.2,0,0,1,230,93.39999999999999L230,184.6A0,0,0,0,0,230,184.6" stroke="#dc3912" stroke-width="1" fill="#dc3912"></path></g><g><path d="M344,184.6L344,207.4A114,91.2,0,0,1,121.57955714235251,235.58234988699525L121.57955714235251,212.78234988699523A114,91.2,0,0,0,344,184.6" stroke="#264d99" stroke-width="1" fill="#264d99"></path><path d="M230,184.6L230,93.39999999999999A114,91.2,0,1,1,121.57955714235251,212.78234988699523L230,184.6A0,0,0,1,0,230,184.6" stroke="#3366cc" stroke-width="1" fill="#3366cc"></path></g><g></g></svg>